%TF.GenerationSoftware,KiCad,Pcbnew,8.0.4*%
%TF.CreationDate,2024-08-27T18:10:04+01:00*%
%TF.ProjectId,PLAN Badge v4,504c414e-2042-4616-9467-652076342e6b,rev?*%
%TF.SameCoordinates,Original*%
%TF.FileFunction,Paste,Top*%
%TF.FilePolarity,Positive*%
%FSLAX46Y46*%
G04 Gerber Fmt 4.6, Leading zero omitted, Abs format (unit mm)*
G04 Created by KiCad (PCBNEW 8.0.4) date 2024-08-27 18:10:04*
%MOMM*%
%LPD*%
G01*
G04 APERTURE LIST*
G04 Aperture macros list*
%AMRoundRect*
0 Rectangle with rounded corners*
0 $1 Rounding radius*
0 $2 $3 $4 $5 $6 $7 $8 $9 X,Y pos of 4 corners*
0 Add a 4 corners polygon primitive as box body*
4,1,4,$2,$3,$4,$5,$6,$7,$8,$9,$2,$3,0*
0 Add four circle primitives for the rounded corners*
1,1,$1+$1,$2,$3*
1,1,$1+$1,$4,$5*
1,1,$1+$1,$6,$7*
1,1,$1+$1,$8,$9*
0 Add four rect primitives between the rounded corners*
20,1,$1+$1,$2,$3,$4,$5,0*
20,1,$1+$1,$4,$5,$6,$7,0*
20,1,$1+$1,$6,$7,$8,$9,0*
20,1,$1+$1,$8,$9,$2,$3,0*%
%AMRotRect*
0 Rectangle, with rotation*
0 The origin of the aperture is its center*
0 $1 length*
0 $2 width*
0 $3 Rotation angle, in degrees counterclockwise*
0 Add horizontal line*
21,1,$1,$2,0,0,$3*%
G04 Aperture macros list end*
%ADD10RoundRect,0.250000X0.250000X0.250000X-0.250000X0.250000X-0.250000X-0.250000X0.250000X-0.250000X0*%
%ADD11RotRect,0.420000X1.300000X108.000000*%
%ADD12RotRect,0.420000X1.300000X288.000000*%
%ADD13R,1.200000X1.800000*%
%ADD14RoundRect,0.250000X-0.337500X-0.475000X0.337500X-0.475000X0.337500X0.475000X-0.337500X0.475000X0*%
%ADD15R,0.420000X1.300000*%
%ADD16RoundRect,0.250000X0.337500X0.475000X-0.337500X0.475000X-0.337500X-0.475000X0.337500X-0.475000X0*%
%ADD17RoundRect,0.250000X-0.339242X0.473757X-0.559001X-0.164468X0.339242X-0.473757X0.559001X0.164468X0*%
%ADD18R,7.450000X6.100000*%
%ADD19RoundRect,0.250000X0.006155X-0.582661X0.552241X-0.185906X-0.006155X0.582661X-0.552241X0.185906X0*%
%ADD20RoundRect,0.250000X0.450000X-0.350000X0.450000X0.350000X-0.450000X0.350000X-0.450000X-0.350000X0*%
%ADD21O,2.050000X0.590000*%
%ADD22RotRect,0.420000X1.300000X324.000000*%
%ADD23RotRect,0.420000X1.300000X144.000000*%
%ADD24R,1.100000X0.700000*%
%ADD25RotRect,0.420000X1.300000X36.000000*%
%ADD26RotRect,0.420000X1.300000X216.000000*%
%ADD27RotRect,0.420000X1.300000X251.000000*%
%ADD28RotRect,0.420000X1.300000X71.000000*%
%ADD29RoundRect,0.250000X-0.450000X0.350000X-0.450000X-0.350000X0.450000X-0.350000X0.450000X0.350000X0*%
%ADD30RoundRect,0.250000X0.556045X-0.174199X0.347459X0.467765X-0.556045X0.174199X-0.347459X-0.467765X0*%
%ADD31RoundRect,0.250000X-0.552241X-0.185906X-0.006155X-0.582661X0.552241X0.185906X0.006155X0.582661X0*%
G04 APERTURE END LIST*
D10*
%TO.C,D1*%
X123444701Y-113667800D03*
X120944701Y-113667800D03*
%TD*%
D11*
%TO.C,LED3*%
X103484105Y-110468683D03*
D12*
X103743680Y-111267571D03*
X104009434Y-112085479D03*
X104269009Y-112884367D03*
%TD*%
D13*
%TO.C,L1*%
X113066706Y-113667810D03*
X115066706Y-113667810D03*
%TD*%
D14*
%TO.C,C3*%
X121157202Y-111127794D03*
X123232202Y-111127794D03*
%TD*%
D15*
%TO.C,LED5*%
X138746837Y-137933955D03*
X139586837Y-137933955D03*
X140446837Y-137933955D03*
X141286837Y-137933955D03*
%TD*%
D16*
%TO.C,C6*%
X134662197Y-111508804D03*
X132587197Y-111508804D03*
%TD*%
D17*
%TO.C,C5*%
X174371122Y-110411025D03*
X173695568Y-112372977D03*
%TD*%
D18*
%TO.C,BT1*%
X111946843Y-102733826D03*
X167686843Y-102733826D03*
X167686843Y-91733826D03*
X111946843Y-91733826D03*
%TD*%
D14*
%TO.C,C7*%
X118525002Y-120000017D03*
X120600002Y-120000017D03*
%TD*%
D19*
%TO.C,C1*%
X118128799Y-71974982D03*
X119807509Y-70755328D03*
%TD*%
D20*
%TO.C,R1*%
X118638691Y-113651814D03*
X118638691Y-111651814D03*
%TD*%
D21*
%TO.C,U1*%
X132886705Y-114170819D03*
X132886705Y-115450819D03*
X132886705Y-116710819D03*
X132886705Y-117980819D03*
X138426705Y-117980819D03*
X138426705Y-116710819D03*
X138426705Y-115450819D03*
X138426705Y-114170819D03*
%TD*%
D22*
%TO.C,LED2*%
X163380199Y-69937569D03*
D23*
X162700624Y-69443830D03*
X162004870Y-68938334D03*
X161325295Y-68444595D03*
%TD*%
D16*
%TO.C,C9*%
X141286772Y-135653352D03*
X139211772Y-135653352D03*
%TD*%
D24*
%TO.C,U2*%
X118090712Y-115765799D03*
X118090712Y-116715799D03*
X118090712Y-117665799D03*
X120670712Y-117665799D03*
X120670712Y-115765799D03*
%TD*%
D25*
%TO.C,LED1*%
X118708359Y-68444595D03*
D26*
X118028784Y-68938334D03*
X117333030Y-69443830D03*
X116653455Y-69937569D03*
%TD*%
D14*
%TO.C,C8*%
X113029203Y-117223794D03*
X115104203Y-117223794D03*
%TD*%
D27*
%TO.C,LED4*%
X175533207Y-113506265D03*
D28*
X175806685Y-112712028D03*
X176086673Y-111898882D03*
X176360151Y-111104645D03*
%TD*%
D29*
%TO.C,R2*%
X138577705Y-130955803D03*
X138577705Y-132955803D03*
%TD*%
D30*
%TO.C,C4*%
X106691357Y-112119910D03*
X106050147Y-110146468D03*
%TD*%
D31*
%TO.C,C2*%
X159940059Y-70014561D03*
X161618769Y-71234215D03*
%TD*%
M02*
